<mxfile host="app.diagrams.net" modified="2021-06-02T23:08:50.221Z" agent="5.0 (X11; Linux x86_64) AppleWebKit/537.36 (KHTML, like Gecko) Chrome/91.0.4472.77 Safari/537.36" etag="koXfp-lhO9xOvG09_s8g" version="14.7.4" type="github">
  <diagram name="Page-1" id="c4acf3e9-155e-7222-9cf6-157b1a14988f">
    <mxGraphModel dx="1141" dy="849" grid="1" gridSize="10" guides="1" tooltips="1" connect="1" arrows="1" fold="1" page="1" pageScale="1" pageWidth="850" pageHeight="1100" background="none" math="0" shadow="0">
      <root>
        <mxCell id="0" />
        <mxCell id="1" parent="0" />
        <mxCell id="lRqNCOmQ82VC_BI8GHUp-1" value="&lt;p style=&quot;margin: 0px ; margin-top: 4px ; text-align: center&quot;&gt;&lt;b&gt;Class&lt;/b&gt;&lt;/p&gt;&lt;hr size=&quot;1&quot;&gt;&lt;p style=&quot;margin: 0px ; margin-left: 4px&quot;&gt;&lt;br&gt;&lt;/p&gt;&lt;hr size=&quot;1&quot;&gt;&lt;p style=&quot;margin: 0px ; margin-left: 4px&quot;&gt;&lt;br&gt;&lt;/p&gt;" style="verticalAlign=top;align=left;overflow=fill;fontSize=12;fontFamily=Helvetica;html=1;" vertex="1" parent="1">
          <mxGeometry x="460" y="40" width="160" height="90" as="geometry" />
        </mxCell>
        <mxCell id="lRqNCOmQ82VC_BI8GHUp-3" value="&lt;p style=&quot;margin: 0px ; margin-top: 4px ; text-align: center&quot;&gt;&lt;i&gt;&amp;lt;&amp;lt;Interface&amp;gt;&amp;gt;&lt;/i&gt;&lt;br&gt;&lt;b&gt;FechaFactory&lt;/b&gt;&lt;/p&gt;&lt;hr size=&quot;1&quot;&gt;&lt;p style=&quot;margin: 0px ; margin-left: 4px&quot;&gt;- dia : int&lt;/p&gt;&lt;p style=&quot;margin: 0px ; margin-left: 4px&quot;&gt;- mes : int&lt;/p&gt;&lt;p style=&quot;margin: 0px ; margin-left: 4px&quot;&gt;- año : int&lt;/p&gt;&lt;hr size=&quot;1&quot;&gt;&lt;p style=&quot;margin: 0px ; margin-left: 4px&quot;&gt;+mostrarFecha() : FechaFactory&lt;/p&gt;" style="verticalAlign=top;align=left;overflow=fill;fontSize=12;fontFamily=Helvetica;html=1;" vertex="1" parent="1">
          <mxGeometry x="260" y="200" width="190" height="140" as="geometry" />
        </mxCell>
        <mxCell id="lRqNCOmQ82VC_BI8GHUp-4" value="&lt;p style=&quot;margin: 0px ; margin-top: 4px ; text-align: center&quot;&gt;&lt;i&gt;&amp;lt;&amp;lt;Interface&amp;gt;&amp;gt;&lt;/i&gt;&lt;br&gt;&lt;b&gt;DocumentoI&lt;/b&gt;&lt;/p&gt;&lt;hr size=&quot;1&quot;&gt;&lt;p style=&quot;margin: 0px ; margin-left: 4px&quot;&gt;&lt;br&gt;&lt;/p&gt;&lt;hr size=&quot;1&quot;&gt;&lt;p style=&quot;margin: 0px ; margin-left: 4px&quot;&gt;+ crearFecha(pais String) : FechaFactory&lt;/p&gt;" style="verticalAlign=top;align=left;overflow=fill;fontSize=12;fontFamily=Helvetica;html=1;" vertex="1" parent="1">
          <mxGeometry x="600" y="200" width="260" height="140" as="geometry" />
        </mxCell>
        <mxCell id="lRqNCOmQ82VC_BI8GHUp-6" value="" style="endArrow=open;endFill=1;endSize=12;html=1;entryX=0.5;entryY=0;entryDx=0;entryDy=0;exitX=0;exitY=0.75;exitDx=0;exitDy=0;" edge="1" parent="1" source="lRqNCOmQ82VC_BI8GHUp-1" target="lRqNCOmQ82VC_BI8GHUp-3">
          <mxGeometry width="160" relative="1" as="geometry">
            <mxPoint x="480" y="270" as="sourcePoint" />
            <mxPoint x="640" y="270" as="targetPoint" />
          </mxGeometry>
        </mxCell>
        <mxCell id="lRqNCOmQ82VC_BI8GHUp-7" value="" style="endArrow=open;endFill=1;endSize=12;html=1;entryX=0.25;entryY=0;entryDx=0;entryDy=0;exitX=1;exitY=0.5;exitDx=0;exitDy=0;" edge="1" parent="1" source="lRqNCOmQ82VC_BI8GHUp-1" target="lRqNCOmQ82VC_BI8GHUp-4">
          <mxGeometry width="160" relative="1" as="geometry">
            <mxPoint x="480" y="270" as="sourcePoint" />
            <mxPoint x="640" y="270" as="targetPoint" />
          </mxGeometry>
        </mxCell>
        <mxCell id="lRqNCOmQ82VC_BI8GHUp-9" value="&lt;p style=&quot;margin: 0px ; margin-top: 4px ; text-align: center&quot;&gt;&lt;b&gt;FechaArgentina&lt;/b&gt;&lt;/p&gt;&lt;hr size=&quot;1&quot;&gt;&lt;p style=&quot;margin: 0px 0px 0px 4px&quot;&gt;- dia : int&lt;/p&gt;&lt;p style=&quot;margin: 0px 0px 0px 4px&quot;&gt;- mes : int&lt;/p&gt;&lt;p style=&quot;margin: 0px 0px 0px 4px&quot;&gt;- año : int&lt;/p&gt;&lt;hr size=&quot;1&quot;&gt;&lt;p style=&quot;margin: 0px ; margin-left: 4px&quot;&gt;+mostrarFecha() : FechaFactory&lt;br&gt;&lt;/p&gt;" style="verticalAlign=top;align=left;overflow=fill;fontSize=12;fontFamily=Helvetica;html=1;" vertex="1" parent="1">
          <mxGeometry x="120" y="440" width="180" height="150" as="geometry" />
        </mxCell>
        <mxCell id="lRqNCOmQ82VC_BI8GHUp-11" value="" style="endArrow=block;dashed=1;endFill=0;endSize=12;html=1;entryX=0.75;entryY=1;entryDx=0;entryDy=0;exitX=0.213;exitY=0;exitDx=0;exitDy=0;exitPerimeter=0;" edge="1" parent="1" target="lRqNCOmQ82VC_BI8GHUp-3">
          <mxGeometry width="160" relative="1" as="geometry">
            <mxPoint x="424.0799999999999" y="439.9999999999998" as="sourcePoint" />
            <mxPoint x="500" y="390" as="targetPoint" />
          </mxGeometry>
        </mxCell>
        <mxCell id="lRqNCOmQ82VC_BI8GHUp-12" value="" style="endArrow=block;dashed=1;endFill=0;endSize=12;html=1;entryX=0.25;entryY=1;entryDx=0;entryDy=0;exitX=0.794;exitY=0;exitDx=0;exitDy=0;exitPerimeter=0;" edge="1" parent="1" source="lRqNCOmQ82VC_BI8GHUp-9" target="lRqNCOmQ82VC_BI8GHUp-3">
          <mxGeometry width="160" relative="1" as="geometry">
            <mxPoint x="340" y="390" as="sourcePoint" />
            <mxPoint x="500" y="390" as="targetPoint" />
          </mxGeometry>
        </mxCell>
        <mxCell id="lRqNCOmQ82VC_BI8GHUp-13" value="&lt;p style=&quot;margin: 0px ; margin-top: 4px ; text-align: center&quot;&gt;&lt;b&gt;FechaEEUU&lt;/b&gt;&lt;/p&gt;&lt;hr size=&quot;1&quot;&gt;&lt;p style=&quot;margin: 0px 0px 0px 4px&quot;&gt;- dia : int&lt;/p&gt;&lt;p style=&quot;margin: 0px 0px 0px 4px&quot;&gt;- mes : int&lt;/p&gt;&lt;p style=&quot;margin: 0px 0px 0px 4px&quot;&gt;- año : int&lt;/p&gt;&lt;hr size=&quot;1&quot;&gt;&lt;p style=&quot;margin: 0px ; margin-left: 4px&quot;&gt;+mostrarFecha() : FechaFactory&lt;br&gt;&lt;/p&gt;" style="verticalAlign=top;align=left;overflow=fill;fontSize=12;fontFamily=Helvetica;html=1;" vertex="1" parent="1">
          <mxGeometry x="345" y="440" width="205" height="150" as="geometry" />
        </mxCell>
        <mxCell id="lRqNCOmQ82VC_BI8GHUp-14" value="&lt;p style=&quot;margin: 0px ; margin-top: 4px ; text-align: center&quot;&gt;&lt;b&gt;Documento&lt;/b&gt;&lt;/p&gt;&lt;hr size=&quot;1&quot;&gt;&lt;p style=&quot;margin: 0px ; margin-left: 4px&quot;&gt;&lt;br&gt;&lt;/p&gt;&lt;hr size=&quot;1&quot;&gt;&lt;p style=&quot;margin: 0px ; margin-left: 4px&quot;&gt;+ crearFecha(pais String) : FechaFactory&lt;/p&gt;" style="verticalAlign=top;align=left;overflow=fill;fontSize=12;fontFamily=Helvetica;html=1;" vertex="1" parent="1">
          <mxGeometry x="670" y="440" width="250" height="90" as="geometry" />
        </mxCell>
        <mxCell id="lRqNCOmQ82VC_BI8GHUp-15" value="" style="endArrow=block;dashed=1;endFill=0;endSize=12;html=1;entryX=0.5;entryY=1;entryDx=0;entryDy=0;exitX=0.5;exitY=0;exitDx=0;exitDy=0;" edge="1" parent="1" source="lRqNCOmQ82VC_BI8GHUp-14" target="lRqNCOmQ82VC_BI8GHUp-4">
          <mxGeometry width="160" relative="1" as="geometry">
            <mxPoint x="670" y="500" as="sourcePoint" />
            <mxPoint x="830" y="500" as="targetPoint" />
          </mxGeometry>
        </mxCell>
        <mxCell id="lRqNCOmQ82VC_BI8GHUp-16" value="" style="endArrow=open;endFill=1;endSize=12;html=1;exitX=0;exitY=0.25;exitDx=0;exitDy=0;" edge="1" parent="1" source="lRqNCOmQ82VC_BI8GHUp-14">
          <mxGeometry width="160" relative="1" as="geometry">
            <mxPoint x="670" y="500" as="sourcePoint" />
            <mxPoint x="450" y="270" as="targetPoint" />
          </mxGeometry>
        </mxCell>
        <mxCell id="lRqNCOmQ82VC_BI8GHUp-17" value="crea" style="text;html=1;align=center;verticalAlign=middle;resizable=0;points=[];autosize=1;strokeColor=none;" vertex="1" parent="1">
          <mxGeometry x="550" y="340" width="40" height="20" as="geometry" />
        </mxCell>
        <mxCell id="lRqNCOmQ82VC_BI8GHUp-18" value="usa" style="text;html=1;align=center;verticalAlign=middle;resizable=0;points=[];autosize=1;strokeColor=none;" vertex="1" parent="1">
          <mxGeometry x="640" y="120" width="30" height="20" as="geometry" />
        </mxCell>
      </root>
    </mxGraphModel>
  </diagram>
</mxfile>
